<svg width="75" height="18" viewBox="0 0 75 18" fill="none" xmlns="http://www.w3.org/2000/svg">
<path d="M6.636 17.322C4.64267 17.322 3.06333 16.77 1.898 15.666C0.732667 14.5467 0.15 12.952 0.15 10.882V7.018C0.15 4.948 0.732667 3.361 1.898 2.257C3.06333 1.13767 4.64267 0.577999 6.636 0.577999C8.614 0.577999 10.1397 1.12233 11.213 2.211C12.3017 3.28433 12.846 4.764 12.846 6.65V6.788H9.856V6.558C9.856 5.60733 9.58767 4.82533 9.051 4.212C8.52967 3.59867 7.72467 3.292 6.636 3.292C5.56267 3.292 4.71933 3.62167 4.106 4.281C3.49267 4.94033 3.186 5.83733 3.186 6.972V10.928C3.186 12.0473 3.49267 12.9443 4.106 13.619C4.71933 14.2783 5.56267 14.608 6.636 14.608C7.72467 14.608 8.52967 14.3013 9.051 13.688C9.58767 13.0593 9.856 12.2773 9.856 11.342V10.928H12.846V11.25C12.846 13.136 12.3017 14.6233 11.213 15.712C10.1397 16.7853 8.614 17.322 6.636 17.322ZM15.3198 17V0.899999H22.3118C23.3238 0.899999 24.2054 1.07633 24.9568 1.429C25.7081 1.78167 26.2908 2.28 26.7048 2.924C27.1188 3.568 27.3258 4.327 27.3258 5.201V5.477C27.3258 6.443 27.0958 7.225 26.6358 7.823C26.1758 8.421 25.6084 8.858 24.9338 9.134V9.548C25.5471 9.57867 26.0224 9.79333 26.3598 10.192C26.6971 10.5753 26.8658 11.089 26.8658 11.733V17H23.8298V12.17C23.8298 11.802 23.7301 11.503 23.5308 11.273C23.3468 11.043 23.0324 10.928 22.5878 10.928H18.3558V17H15.3198ZM18.3558 8.168H21.9898C22.7104 8.168 23.2701 7.97633 23.6688 7.593C24.0828 7.19433 24.2898 6.673 24.2898 6.029V5.799C24.2898 5.155 24.0904 4.64133 23.6918 4.258C23.2931 3.85933 22.7258 3.66 21.9898 3.66H18.3558V8.168ZM29.852 17V0.899999H40.202V3.66H32.888V7.501H39.558V10.261H32.888V14.24H40.34V17H29.852ZM41.4833 17L45.7153 0.899999H51.0053L55.2373 17H52.1093L51.2353 13.458H45.4853L44.6113 17H41.4833ZM46.1983 10.652H50.5223L48.5673 2.809H48.1533L46.1983 10.652ZM57.1645 17V0.899999H62.7995L65.5825 14.93H65.9965L68.7795 0.899999H74.4145V17H71.4705V3.131H71.0565L68.2965 17H63.2825L60.5225 3.131H60.1085V17H57.1645Z" fill="white"/>
</svg>
